<svg width="80" height="80" viewBox="0 0 80 80" fill="none" xmlns="http://www.w3.org/2000/svg">
<g clip-path="url(#clip0_154_1280)">
<rect x="80" width="80" height="80" rx="40" transform="rotate(90 80 0)" fill="white"/>
<circle cx="69.5" cy="117.5" r="59.5" fill="#202426"/>
<rect x="55.5901" y="30.1918" width="3" height="32.2139" rx="1.5" transform="rotate(-11.5688 55.5901 30.1918)" fill="#00B8FA" stroke="white"/>
<circle cx="43.1274" cy="20" r="4" fill="#00B8FA"/>
<circle cx="19.5" cy="19.5" r="3.5" fill="#76DCFF"/>
<circle cx="19.5" cy="14.5" r="0.5" fill="#76DCFF"/>
<circle cx="19.5" cy="24.5" r="0.5" fill="#76DCFF"/>
<circle cx="24.5" cy="19.5" r="0.5" transform="rotate(90 24.5 19.5)" fill="#76DCFF"/>
<circle cx="14.5" cy="19.5" r="0.5" transform="rotate(90 14.5 19.5)" fill="#76DCFF"/>
<circle cx="23.8302" cy="22" r="0.5" transform="rotate(120 23.8302 22)" fill="#76DCFF"/>
<circle cx="15.17" cy="17" r="0.5" transform="rotate(120 15.17 17)" fill="#76DCFF"/>
<circle cx="22.0001" cy="23.83" r="0.5" transform="rotate(150 22.0001 23.83)" fill="#76DCFF"/>
<circle cx="17.0001" cy="15.1698" r="0.5" transform="rotate(150 17.0001 15.1698)" fill="#76DCFF"/>
<circle cx="17.0001" cy="23.8302" r="0.5" transform="rotate(-150 17.0001 23.8302)" fill="#76DCFF"/>
<circle cx="22.0001" cy="15.17" r="0.5" transform="rotate(-150 22.0001 15.17)" fill="#76DCFF"/>
<circle cx="15.1698" cy="22.0001" r="0.5" transform="rotate(-120 15.1698 22.0001)" fill="#76DCFF"/>
<circle cx="23.83" cy="17.0001" r="0.5" transform="rotate(-120 23.83 17.0001)" fill="#76DCFF"/>
<path d="M35.8655 29.5317L32.6788 43.7722C32.6609 43.852 32.6529 43.9337 32.655 44.0155L32.9987 57.7884C33.0051 58.0468 32.9865 58.3053 32.9431 58.5602L30.939 70.3198C30.6671 71.9153 31.9815 73.3349 33.5931 73.1866C34.6358 73.0906 35.5038 72.346 35.7573 71.3301L38.6686 59.6643L39.785 50.7851C39.8776 50.0489 40.7116 49.6664 41.33 50.0766L46.0173 53.186C46.83 53.7251 47.4178 54.5427 47.67 55.4848L50.2074 64.9626C50.5039 66.0702 51.6804 66.691 52.7621 66.3106C53.6517 65.9978 54.1945 65.098 54.0564 64.1652L52.1295 51.15C51.9703 50.0748 51.3804 49.1107 50.4956 48.4795L45.4822 44.9032C45.2068 44.7067 45.0494 44.3842 45.0639 44.0461L45.3834 36.6132C45.4201 35.7608 46.4386 35.3429 47.0634 35.9238L49.5719 38.256C49.8197 38.4864 50.1673 38.5759 50.4957 38.4937L60.0128 36.111C60.9089 35.8867 61.5076 35.0425 61.4229 34.1226C61.3219 33.0256 60.3005 32.2523 59.2172 32.4528L52.0339 33.7821C51.6281 33.8571 51.2179 33.6753 51.001 33.3241L47.0691 26.9565C45.5202 25.1521 43.0402 24.4527 40.7768 25.1819L39.4418 25.612C37.6395 26.1927 36.279 27.6838 35.8655 29.5317Z" fill="#00B8FA" stroke="white"/>
<path d="M39.0557 25.6443C35.4892 25.0298 32.0879 27.386 31.4098 30.941L29.9135 38.7852C29.6406 40.2155 30.643 41.5754 32.09 41.738L35.8855 42.1645C37.201 42.3123 38.4036 41.4091 38.6284 40.1046L40.7149 27.9942C40.9056 26.8871 40.1628 25.835 39.0557 25.6443Z" fill="#00B8FA" stroke="white"/>
</g>
<defs>
<clipPath id="clip0_154_1280">
<rect x="80" width="80" height="80" rx="40" transform="rotate(90 80 0)" fill="white"/>
</clipPath>
</defs>
</svg>
