<svg width="80" height="80" viewBox="0 0 80 80" fill="none" xmlns="http://www.w3.org/2000/svg">
<rect x="80" width="80" height="80" rx="40" transform="rotate(90 80 0)" fill="white"/>
<rect x="14" y="64" width="52" height="2" rx="1" fill="#202426"/>
<path d="M13 23.6955C13 22.9046 13.515 22.2058 14.2705 21.9717L39.4081 14.1834C39.7937 14.0639 40.2063 14.0639 40.5919 14.1834L65.7295 21.9717C66.485 22.2058 67 22.9046 67 23.6955C67 24.6921 66.1921 25.5 65.1955 25.5H14.8045C13.8079 25.5 13 24.6921 13 23.6955Z" fill="#202426"/>
<path d="M16 25.4704C16 24.5956 16.5685 23.8223 17.4035 23.5614L39.4035 16.6864C39.7919 16.565 40.2081 16.565 40.5965 16.6864L62.5965 23.5614C63.4315 23.8223 64 24.5956 64 25.4704V64H16V25.4704Z" fill="#76DCFF"/>
<rect x="14" y="50" width="52" height="2" rx="1" fill="#00B8FA"/>
<rect x="14" y="35" width="52" height="2" rx="1" fill="#00B8FA"/>
<rect x="32" y="27" width="6" height="5" rx="2" fill="white"/>
<rect x="32" y="42" width="6" height="5" rx="2" fill="white"/>
<path d="M37 58C37 56.8954 37.8954 56 39 56H41C42.1046 56 43 56.8954 43 58V66H37V58Z" fill="white"/>
<rect x="42" y="27" width="6" height="5" rx="2" fill="white"/>
<rect x="42" y="42" width="6" height="5" rx="2" fill="white"/>
<rect x="52" y="27" width="6" height="5" rx="2" fill="white"/>
<rect x="52" y="42" width="6" height="5" rx="2" fill="white"/>
<rect x="52" y="56" width="6" height="5" rx="2" fill="white"/>
<rect x="22" y="42" width="6" height="5" rx="2" fill="white"/>
<rect x="22" y="27" width="6" height="5" rx="2" fill="white"/>
<rect x="22" y="56" width="6" height="5" rx="2" fill="white"/>
</svg>
