<svg width="80" height="80" viewBox="0 0 80 80" fill="none" xmlns="http://www.w3.org/2000/svg">
<rect x="80" width="80" height="80" rx="40" transform="rotate(90 80 0)" fill="white"/>
<path d="M22.0476 32L34.5 38.5L46.9762 28.5L62 34.5L73.0476 58.5L52.5 52.5L34.5 67L11 56L22.0476 32Z" fill="#00B8FA"/>
<path d="M34.5 38.5L47 28.5L52.5 52.5L34.5 67V38.5Z" fill="#76DCFF"/>
<path fill-rule="evenodd" clip-rule="evenodd" d="M40.2461 19.5873C36.7963 16.1376 31.2032 16.1376 27.7534 19.5873C24.6965 22.6443 24.3012 27.4646 26.8192 30.9788L33.9998 41L41.1803 30.9788C43.6984 27.4646 43.303 22.6443 40.2461 19.5873ZM33.9996 18.3699C38.1657 18.3699 41.543 21.7472 41.543 25.9133C41.543 30.0794 38.1657 33.4566 33.9996 33.4566C29.8335 33.4566 26.4562 30.0794 26.4562 25.9133C26.4562 21.7472 29.8335 18.3699 33.9996 18.3699Z" fill="#202426"/>
</svg>
