<svg width="147" height="34" viewBox="0 0 147 34" fill="none" xmlns="http://www.w3.org/2000/svg">
<mask id="mask0_413_13910" style="mask-type:luminance" maskUnits="userSpaceOnUse" x="2" y="4" width="30" height="27">
<path d="M31.4596 4.5332H2.86035V30.0332H31.4596V4.5332Z" fill="white"/>
</mask>
<g mask="url(#mask0_413_13910)">
<path fill-rule="evenodd" clip-rule="evenodd" d="M17.16 30.0337C25.0574 30.0337 31.4596 23.7607 31.4596 16.0227C31.4596 12.6373 30.2342 9.53228 28.1942 7.11035C28.3806 7.33158 28.5601 7.55853 28.7325 7.79086C28.8329 8.27768 28.8857 8.78151 28.8857 9.2974C28.8857 13.4759 25.4285 16.8633 21.1639 16.8633C18.1384 16.8633 15.3622 15.8171 13.1917 14.0738C11.8391 12.9308 10.0775 12.2397 8.15122 12.2397C6.16334 12.2397 4.3509 12.9757 2.98228 14.1847C2.90184 14.7862 2.86035 15.3997 2.86035 16.0227C2.86035 23.7607 9.26253 30.0337 17.16 30.0337Z" fill="#00B8FA"/>
<path fill-rule="evenodd" clip-rule="evenodd" d="M6.93945 25.8211C9.53529 28.4201 13.1554 30.033 17.16 30.033C23.1244 30.033 28.236 26.455 30.3809 21.3702C28.1155 19.7953 25.3056 18.9415 22.3175 19.1252C19.2652 19.3128 16.5356 20.5517 14.4728 22.4595L14.4721 22.4594C12.486 24.3204 9.87076 25.5569 6.93945 25.8211Z" fill="#76DCFF"/>
<path fill-rule="evenodd" clip-rule="evenodd" d="M4.24699 9.99695C4.14151 10.2136 4.04155 10.4333 3.94727 10.6559C5.15706 9.88492 6.60105 9.43702 8.15176 9.43702C10.0781 9.43702 11.8397 10.1282 13.1923 11.2712C15.3594 13.0118 18.1303 14.0574 21.1503 14.0606L21.1644 14.0607C23.8495 14.0607 26.0263 11.9279 26.0263 9.29694C26.0263 6.66602 23.8495 4.5332 21.1644 4.5332C18.4793 4.5332 16.3025 6.66602 16.3025 9.29694C16.3025 10.2275 16.7185 11.0522 17.3936 11.5618C17.335 11.3775 17.3035 11.1814 17.3035 10.9782C17.3035 9.89495 18.1998 9.01673 19.3055 9.01673C20.4111 9.01673 21.3074 9.89495 21.3074 10.9782C21.3074 12.0616 20.4111 12.9398 19.3055 12.9398C19.1316 12.9398 18.963 12.9181 18.8022 12.8773L18.806 12.8839C16.9267 12.4447 15.211 11.5925 13.7643 10.4305C12.4117 9.28754 10.6501 8.59637 8.72374 8.59637C7.05492 8.59637 5.50974 9.1151 4.24699 9.99695Z" fill="#76DCFF"/>
</g>
<path d="M44.5785 23.9231C43.8647 23.9231 43.1165 23.7939 42.3341 23.5355C41.5516 23.2771 40.8995 22.8419 40.3779 22.2299C40.2681 22.0939 40.22 21.9511 40.2337 21.8015C40.2612 21.6383 40.3504 21.5023 40.5014 21.3935C40.6387 21.2983 40.7828 21.2643 40.9338 21.2915C41.0986 21.3187 41.229 21.3935 41.3251 21.5159C41.7232 21.9783 42.2036 22.3047 42.7665 22.4951C43.343 22.6719 43.9676 22.7603 44.6403 22.7603C45.7934 22.7603 46.6102 22.5563 47.0907 22.1483C47.5712 21.7403 47.8114 21.2643 47.8114 20.7203C47.8114 20.1899 47.5506 19.7547 47.0289 19.4147C46.521 19.0611 45.7317 18.8095 44.6609 18.6599C43.2881 18.4695 42.2723 18.1023 41.6134 17.5583C40.9544 17.0143 40.625 16.3819 40.625 15.6611C40.625 14.9811 40.7966 14.4099 41.1398 13.9475C41.4829 13.4715 41.9497 13.1179 42.54 12.8867C43.144 12.6419 43.8304 12.5195 44.5991 12.5195C45.5326 12.5195 46.3219 12.6895 46.9671 13.0295C47.6123 13.3559 48.134 13.7979 48.5321 14.3555C48.6419 14.4915 48.6762 14.6411 48.635 14.8043C48.6076 14.9539 48.5046 15.0763 48.3262 15.1715C48.1889 15.2395 48.0448 15.2599 47.8938 15.2327C47.7427 15.2055 47.6123 15.1239 47.5025 14.9879C47.1593 14.5527 46.7406 14.2263 46.2464 14.0087C45.766 13.7775 45.2031 13.6619 44.5579 13.6619C43.6931 13.6619 43.0204 13.8455 42.54 14.2127C42.0595 14.5799 41.8193 15.0219 41.8193 15.5387C41.8193 15.8923 41.9154 16.2051 42.1076 16.4771C42.3135 16.7355 42.6429 16.9599 43.0959 17.1503C43.549 17.3271 44.153 17.4699 44.908 17.5787C45.9376 17.7147 46.7475 17.9459 47.3378 18.2723C47.9418 18.5987 48.3674 18.9795 48.6144 19.4147C48.8753 19.8363 49.0057 20.2919 49.0057 20.7815C49.0057 21.4207 48.7998 21.9783 48.3879 22.4543C47.9761 22.9303 47.4339 23.2975 46.7612 23.5559C46.0886 23.8007 45.361 23.9231 44.5785 23.9231Z" fill="#00B8FA"/>
<path d="M56.9355 23.9222C55.8373 23.9222 54.8489 23.6774 53.9704 23.1878C53.1055 22.6846 52.4191 22.0046 51.9112 21.1478C51.417 20.2774 51.1699 19.305 51.1699 18.2306C51.1699 17.1426 51.417 16.1702 51.9112 15.3134C52.4191 14.443 53.1055 13.763 53.9704 13.2734C54.8489 12.7702 55.8373 12.5186 56.9355 12.5186C58.0339 12.5186 59.0154 12.7702 59.8803 13.2734C60.7451 13.763 61.4246 14.443 61.9188 15.3134C62.4267 16.1702 62.6807 17.1426 62.6807 18.2306L62.1659 19.0466C62.1659 19.9714 61.9326 20.801 61.4658 21.5354C61.0128 22.2698 60.3951 22.8546 59.6126 23.2898C58.8301 23.7114 57.9378 23.9222 56.9355 23.9222ZM56.9355 22.7798C57.8005 22.7798 58.5693 22.5826 59.2419 22.1882C59.9283 21.7802 60.4637 21.2362 60.8481 20.5562C61.2462 19.8626 61.4452 19.0874 61.4452 18.2306C61.4452 17.3602 61.2462 16.585 60.8481 15.905C60.4637 15.2114 59.9283 14.6674 59.2419 14.273C58.5693 13.865 57.8005 13.661 56.9355 13.661C56.0844 13.661 55.3157 13.865 54.6293 14.273C53.9429 14.6674 53.4007 15.2114 53.0026 15.905C52.6045 16.585 52.4054 17.3602 52.4054 18.2306C52.4054 19.0874 52.6045 19.8626 53.0026 20.5562C53.4007 21.2362 53.9429 21.7802 54.6293 22.1882C55.3157 22.5826 56.0844 22.7798 56.9355 22.7798ZM62.063 23.7998C61.8845 23.7998 61.7335 23.7454 61.61 23.6366C61.5001 23.5142 61.4452 23.3646 61.4452 23.1878V19.4546L61.8365 18.2306H62.6807V23.1878C62.6807 23.3646 62.6258 23.5142 62.516 23.6366C62.4062 23.7454 62.2551 23.7998 62.063 23.7998Z" fill="#00B8FA"/>
<path d="M66.3814 28.5743C66.203 28.5743 66.052 28.5131 65.9284 28.3907C65.8186 28.2819 65.7637 28.1391 65.7637 27.9623V18.1091C65.7911 17.0347 66.052 16.0827 66.5461 15.2531C67.0541 14.4099 67.7405 13.7435 68.6053 13.2539C69.4701 12.7643 70.4379 12.5195 71.5087 12.5195C72.6069 12.5195 73.5884 12.7711 74.4533 13.2743C75.3318 13.7639 76.0182 14.4439 76.5124 15.3143C77.0203 16.1711 77.2743 17.1435 77.2743 18.2315C77.2743 19.3059 77.0203 20.2783 76.5124 21.1487C76.0182 22.0055 75.3318 22.6855 74.4533 23.1887C73.5884 23.6783 72.6069 23.9231 71.5087 23.9231C70.5203 23.9231 69.628 23.7123 68.8318 23.2907C68.0493 22.8691 67.4384 22.3047 66.9992 21.5975V27.9623C66.9992 28.1391 66.9442 28.2819 66.8344 28.3907C66.7246 28.5131 66.5736 28.5743 66.3814 28.5743ZM71.5087 22.7807C72.3735 22.7807 73.1423 22.5835 73.8149 22.1891C74.5013 21.7811 75.0435 21.2371 75.4416 20.5571C75.8397 19.8635 76.0388 19.0883 76.0388 18.2315C76.0388 17.3611 75.8397 16.5859 75.4416 15.9059C75.0435 15.2123 74.5013 14.6683 73.8149 14.2739C73.1423 13.8659 72.3735 13.6619 71.5087 13.6619C70.6576 13.6619 69.8888 13.8659 69.2024 14.2739C68.5161 14.6683 67.9738 15.2123 67.5757 15.9059C67.1913 16.5859 66.9992 17.3611 66.9992 18.2315C66.9992 19.0883 67.1913 19.8635 67.5757 20.5571C67.9738 21.2371 68.5161 21.7811 69.2024 22.1891C69.8888 22.5835 70.6576 22.7807 71.5087 22.7807Z" fill="#00B8FA"/>
<path d="M85.5107 23.9222C84.4125 23.9222 83.4241 23.6774 82.5456 23.1878C81.6807 22.6846 80.9943 22.0046 80.4864 21.1478C79.9922 20.2774 79.7451 19.305 79.7451 18.2306C79.7451 17.1426 79.9922 16.1702 80.4864 15.3134C80.9943 14.443 81.6807 13.763 82.5456 13.2734C83.4241 12.7702 84.4125 12.5186 85.5107 12.5186C86.6089 12.5186 87.5905 12.7702 88.4553 13.2734C89.3201 13.763 89.9997 14.443 90.4939 15.3134C91.0018 16.1702 91.2557 17.1426 91.2557 18.2306L90.7409 19.0466C90.7409 19.9714 90.5076 20.801 90.0408 21.5354C89.5878 22.2698 88.9701 22.8546 88.1876 23.2898C87.4051 23.7114 86.5128 23.9222 85.5107 23.9222ZM85.5107 22.7798C86.3756 22.7798 87.1443 22.5826 87.817 22.1882C88.5033 21.7802 89.0387 21.2362 89.4231 20.5562C89.8212 19.8626 90.0202 19.0874 90.0202 18.2306C90.0202 17.3602 89.8212 16.585 89.4231 15.905C89.0387 15.2114 88.5033 14.6674 87.817 14.273C87.1443 13.865 86.3756 13.661 85.5107 13.661C84.6596 13.661 83.8909 13.865 83.2045 14.273C82.5181 14.6674 81.9759 15.2114 81.5778 15.905C81.1797 16.585 80.9806 17.3602 80.9806 18.2306C80.9806 19.0874 81.1797 19.8626 81.5778 20.5562C81.9759 21.2362 82.5181 21.7802 83.2045 22.1882C83.8909 22.5826 84.6596 22.7798 85.5107 22.7798ZM90.638 23.7998C90.4595 23.7998 90.3085 23.7454 90.185 23.6366C90.0752 23.5142 90.0202 23.3646 90.0202 23.1878V19.4546L90.4115 18.2306H91.2557V23.1878C91.2557 23.3646 91.2008 23.5142 91.091 23.6366C90.9812 23.7454 90.8302 23.7998 90.638 23.7998Z" fill="#00B8FA"/>
<path d="M94.7497 16.9862C94.8321 16.1158 95.0723 15.3474 95.4704 14.681C95.8685 14.001 96.3833 13.4706 97.0148 13.0898C97.6462 12.709 98.3464 12.5186 99.1151 12.5186C99.6368 12.5186 100.042 12.5798 100.33 12.7022C100.618 12.8246 100.728 13.0422 100.659 13.355C100.618 13.559 100.522 13.6814 100.371 13.7222C100.22 13.763 100.035 13.7698 99.8152 13.7426C99.6093 13.7018 99.3759 13.6814 99.1151 13.6814C98.4287 13.6814 97.8178 13.8242 97.2825 14.1098C96.7471 14.3954 96.3284 14.7898 96.0264 15.293C95.7244 15.7826 95.5734 16.347 95.5734 16.9862H94.7497ZM94.9556 23.7998C94.7772 23.7998 94.6262 23.7454 94.5026 23.6366C94.3928 23.5142 94.3379 23.3646 94.3379 23.1878V13.253C94.3379 13.0626 94.3928 12.913 94.5026 12.8042C94.6262 12.6954 94.7772 12.641 94.9556 12.641C95.1478 12.641 95.2988 12.6954 95.4086 12.8042C95.5185 12.913 95.5734 13.0626 95.5734 13.253V23.1878C95.5734 23.3646 95.5185 23.5142 95.4086 23.6366C95.2988 23.7454 95.1478 23.7998 94.9556 23.7998Z" fill="#00B8FA"/>
<path d="M107.98 23.8002C107.225 23.7866 106.552 23.6166 105.962 23.2902C105.371 22.9502 104.911 22.4878 104.581 21.903C104.252 21.3046 104.088 20.6314 104.088 19.8834V9.7242C104.088 9.5338 104.143 9.3842 104.253 9.2754C104.376 9.153 104.527 9.0918 104.706 9.0918C104.898 9.0918 105.049 9.153 105.159 9.2754C105.282 9.3842 105.344 9.5338 105.344 9.7242V19.8834C105.344 20.6722 105.59 21.3182 106.085 21.8214C106.579 22.311 107.217 22.5558 108 22.5558H108.453C108.645 22.5558 108.796 22.617 108.906 22.7394C109.029 22.8482 109.092 22.9978 109.092 23.1882C109.092 23.365 109.029 23.5146 108.906 23.637C108.796 23.7458 108.645 23.8002 108.453 23.8002H107.98ZM102.482 14.151C102.317 14.151 102.18 14.1034 102.07 14.0082C101.974 13.8994 101.926 13.7634 101.926 13.6002C101.926 13.437 101.974 13.3078 102.07 13.2126C102.18 13.1038 102.317 13.0494 102.482 13.0494H108.061C108.226 13.0494 108.357 13.1038 108.453 13.2126C108.563 13.3078 108.617 13.437 108.617 13.6002C108.617 13.7634 108.563 13.8994 108.453 14.0082C108.357 14.1034 108.226 14.151 108.061 14.151H102.482Z" fill="#00B8FA"/>
<path d="M112.701 23.8004C112.523 23.8004 112.372 23.746 112.248 23.6372C112.138 23.5148 112.083 23.3652 112.083 23.1884V13.2536C112.083 13.0632 112.138 12.9136 112.248 12.8048C112.372 12.696 112.523 12.6416 112.701 12.6416C112.893 12.6416 113.044 12.696 113.154 12.8048C113.264 12.9136 113.319 13.0632 113.319 13.2536V23.1884C113.319 23.3652 113.264 23.5148 113.154 23.6372C113.044 23.746 112.893 23.8004 112.701 23.8004ZM112.681 10.2956C112.42 10.2956 112.193 10.2072 112.001 10.0304C111.823 9.84004 111.733 9.60884 111.733 9.33684C111.733 9.02404 111.829 8.79284 112.022 8.64324C112.228 8.48004 112.454 8.39844 112.701 8.39844C112.935 8.39844 113.147 8.48004 113.34 8.64324C113.545 8.79284 113.648 9.02404 113.648 9.33684C113.648 9.60884 113.552 9.84004 113.36 10.0304C113.182 10.2072 112.955 10.2956 112.681 10.2956Z" fill="#00B8FA"/>
<path d="M132.949 23.7996C132.77 23.7996 132.619 23.7452 132.496 23.6364C132.386 23.514 132.331 23.3644 132.331 23.1876V17.292C132.331 16.2448 132.05 15.388 131.487 14.7216C130.938 14.0552 130.217 13.722 129.325 13.722C128.377 13.722 127.602 14.0348 126.998 14.6604C126.407 15.2724 126.126 16.102 126.154 17.1492H124.918C124.946 16.2108 125.151 15.3948 125.536 14.7012C125.92 14.0076 126.442 13.4704 127.101 13.0896C127.76 12.6952 128.501 12.498 129.325 12.498C130.162 12.498 130.896 12.702 131.528 13.11C132.159 13.518 132.654 14.0824 133.01 14.8032C133.381 15.524 133.566 16.3536 133.566 17.292V23.1876C133.566 23.3644 133.512 23.514 133.402 23.6364C133.292 23.7452 133.141 23.7996 132.949 23.7996ZM118.061 23.7996C117.883 23.7996 117.732 23.7452 117.608 23.6364C117.498 23.514 117.443 23.3644 117.443 23.1876V13.2528C117.443 13.0624 117.498 12.9128 117.608 12.804C117.732 12.6952 117.883 12.6408 118.061 12.6408C118.253 12.6408 118.404 12.6952 118.514 12.804C118.624 12.9128 118.679 13.0624 118.679 13.2528V23.1876C118.679 23.3644 118.624 23.514 118.514 23.6364C118.404 23.7452 118.253 23.7996 118.061 23.7996ZM125.536 23.7996C125.357 23.7996 125.206 23.7452 125.083 23.6364C124.973 23.514 124.918 23.3644 124.918 23.1876V17.292C124.918 16.2448 124.637 15.388 124.074 14.7216C123.525 14.0552 122.804 13.722 121.912 13.722C120.964 13.722 120.189 14.0212 119.585 14.6196C118.981 15.218 118.679 15.9932 118.679 16.9452H117.649C117.69 16.0748 117.896 15.3064 118.267 14.64C118.651 13.9736 119.159 13.45 119.791 13.0692C120.422 12.6884 121.129 12.498 121.912 12.498C122.749 12.498 123.484 12.702 124.115 13.11C124.746 13.518 125.241 14.0824 125.598 14.8032C125.968 15.524 126.154 16.3536 126.154 17.292V23.1876C126.154 23.3644 126.099 23.514 125.989 23.6364C125.879 23.7452 125.728 23.7996 125.536 23.7996Z" fill="#00B8FA"/>
<path d="M142.052 23.9019C140.968 23.9019 140 23.6639 139.149 23.1879C138.311 22.6983 137.652 22.0251 137.172 21.1683C136.691 20.3115 136.451 19.3323 136.451 18.2307C136.451 17.1155 136.678 16.1363 137.131 15.2931C137.584 14.4363 138.208 13.7631 139.005 13.2735C139.801 12.7839 140.714 12.5391 141.743 12.5391C142.759 12.5391 143.658 12.7771 144.441 13.2531C145.223 13.7155 145.834 14.3615 146.273 15.1911C146.713 16.0071 146.932 16.9523 146.932 18.0267C146.932 18.2035 146.877 18.3463 146.767 18.4551C146.658 18.5503 146.514 18.5979 146.335 18.5979H137.275V17.5371H146.665L145.759 18.2103C145.786 17.3263 145.635 16.5443 145.305 15.8643C144.976 15.1843 144.502 14.6539 143.885 14.2731C143.281 13.8787 142.567 13.6815 141.743 13.6815C140.961 13.6815 140.261 13.8787 139.643 14.2731C139.039 14.6539 138.558 15.1843 138.201 15.8643C137.858 16.5443 137.687 17.3331 137.687 18.2307C137.687 19.1147 137.872 19.8967 138.243 20.5767C138.613 21.2567 139.128 21.7939 139.787 22.1883C140.446 22.5691 141.201 22.7595 142.052 22.7595C142.587 22.7595 143.123 22.6711 143.658 22.4943C144.207 22.3039 144.64 22.0591 144.955 21.7599C145.065 21.6511 145.196 21.5967 145.347 21.5967C145.511 21.5831 145.649 21.6239 145.759 21.7191C145.91 21.8415 145.985 21.9775 145.985 22.1271C145.999 22.2767 145.937 22.4127 145.8 22.5351C145.36 22.9295 144.784 23.2559 144.07 23.5143C143.37 23.7727 142.697 23.9019 142.052 23.9019Z" fill="#00B8FA"/>
</svg>
