<svg width="28" height="28" viewBox="0 0 28 28" fill="none" xmlns="http://www.w3.org/2000/svg">
<path d="M5.83398 17.5007H4.66732C4.04848 17.5007 3.45499 17.2548 3.0174 16.8172C2.57982 16.3796 2.33398 15.7862 2.33398 15.1673V4.66732C2.33398 4.04848 2.57982 3.45499 3.0174 3.0174C3.45499 2.57982 4.04848 2.33398 4.66732 2.33398H15.1673C15.7862 2.33398 16.3796 2.57982 16.8172 3.0174C17.2548 3.45499 17.5007 4.04848 17.5007 4.66732V5.83398M12.834 10.5007H23.334C24.6227 10.5007 25.6673 11.5453 25.6673 12.834V23.334C25.6673 24.6227 24.6227 25.6673 23.334 25.6673H12.834C11.5453 25.6673 10.5007 24.6227 10.5007 23.334V12.834C10.5007 11.5453 11.5453 10.5007 12.834 10.5007Z" stroke="white" stroke-linecap="round" stroke-linejoin="round"/>
</svg>
