<svg width="81" height="24" viewBox="0 0 81 24" fill="none" xmlns="http://www.w3.org/2000/svg">
<path d="M10.9088 23.9992C10.9088 23.9992 0.5 20.9443 0.5 5.79919V0H21.3176V5.79919C21.3176 20.3747 10.9088 23.9992 10.9088 23.9992Z" fill="#4FB84E"/>
<path d="M16.9302 5.85185H8.54614V10.6672H16.9302V12.117C16.9302 14.5506 16.2295 16.5182 12.5435 16.5182H8.54614V22.861C9.92187 23.7155 10.9083 24.0002 10.9083 24.0002C10.9083 24.0002 21.3171 20.3757 21.3171 5.8001L21.317 1.4248C21.317 3.85838 20.2528 5.80007 16.9302 5.85185Z" fill="#055532"/>
<path d="M27.1045 14.2646H29.2591C30.427 14.2646 31.2578 14.7824 31.2578 15.7921C31.2578 16.284 31.0242 16.7759 30.5829 17.0348V17.0607C31.2578 17.2678 31.4914 17.8632 31.4914 18.381C31.4914 19.6496 30.427 20.1156 29.2591 20.1156H27.1045V14.2646ZM29.285 16.517C29.6483 16.517 29.8042 16.2581 29.8042 15.9733C29.8042 15.7144 29.6483 15.4814 29.2591 15.4814H28.5581V16.517H29.285ZM29.3888 18.8729C29.8042 18.8729 30.0116 18.5881 30.0116 18.2516C30.0116 17.915 29.8042 17.6561 29.3888 17.6561H28.5322V18.8729H29.3888Z" fill="black"/>
<path d="M33.6991 14.2646H35.2048L37.2035 20.0897H35.7237L35.3604 18.8729H33.5435L33.1799 20.0897H31.7004L33.6991 14.2646ZM35.023 17.7338L34.6855 16.5947C34.5817 16.2322 34.4519 15.585 34.4519 15.585H34.426C34.426 15.585 34.2961 16.2322 34.1925 16.5947L33.855 17.7338H35.023Z" fill="black"/>
<path d="M37.7739 14.2646H39.2275L40.837 16.983C41.0706 17.3713 41.33 17.9668 41.33 17.9668H41.3559C41.3559 17.9668 41.2782 17.3454 41.2782 16.983V14.2646H42.7059V20.0897H41.2782L39.6429 17.3713C39.4093 16.983 39.1498 16.3876 39.1498 16.3876H39.1237C39.1237 16.3876 39.2016 17.0089 39.2016 17.3713V20.0897H37.7739V14.2646Z" fill="black"/>
<path d="M45.3796 14.2646V16.517H45.9765L47.1965 14.2646H48.728L47.1447 17.0607V17.0865L48.806 20.1156H47.1965L45.9506 17.7597H45.3537V20.1156H43.926V14.2646H45.3796Z" fill="black"/>
<path d="M27.1045 11.6243V3.44336H32.1403V4.03882C32.1403 4.66015 31.647 5.15203 31.0242 5.15203H29.1032V6.86072H31.5952V7.43027C31.5952 8.05165 31.076 8.56942 30.4532 8.56942H29.1032V11.5984H27.1045V11.6243Z" fill="black"/>
<path d="M35.2822 7.1455H36.1647C36.5021 7.1455 36.7616 7.06783 36.9434 6.88661C37.1252 6.70539 37.2291 6.4724 37.2291 6.13584C37.2291 5.69569 37.0732 5.38503 36.7357 5.25558C36.5542 5.17792 36.2945 5.15203 35.9829 5.15203H35.3081V7.1455H35.2822ZM33.2576 3.44336H36.1127C36.8396 3.44336 37.3588 3.52102 37.6962 3.65047C38.1634 3.83169 38.5529 4.11649 38.8124 4.5307C39.0719 4.94492 39.2016 5.4368 39.2016 6.03229C39.2016 6.49828 39.0978 6.93839 38.8903 7.35261C38.6826 7.76682 38.3711 8.07754 37.9816 8.28465V8.31053C38.0596 8.41409 38.1634 8.56942 38.2931 8.80242L39.8765 11.6761H37.6701L36.2165 8.90597H35.2822V11.6761H33.2576V3.44336Z" fill="black"/>
<path d="M40.8115 11.6243V3.44336H45.9771V5.15203H42.8361V6.65362H45.3281V8.36231H42.8361V9.91562H46.1327V11.6243H40.8115Z" fill="black"/>
<path d="M47.4048 11.6243V3.44336H52.5442V5.15203H49.4294V6.65362H51.9211V8.36231H49.4294V9.91562H52.726V11.6243H47.4048Z" fill="black"/>
<path d="M55.9958 9.91562H56.8263C57.527 9.91562 58.0722 9.70852 58.4611 9.2943C58.8509 8.88008 59.0583 8.28465 59.0583 7.50794C59.0583 6.75717 58.8509 6.16173 58.4611 5.74747C58.0722 5.33325 57.527 5.15203 56.8263 5.15203H55.9958V9.91562ZM53.9968 11.6243V3.44336H56.904C58.2016 3.44336 59.2401 3.8058 59.9932 4.5307C60.7457 5.25558 61.1347 6.2394 61.1347 7.53383C61.1347 8.8283 60.7457 9.81207 59.9932 10.537C59.2401 11.2619 58.2016 11.6243 56.904 11.6243H53.9968Z" fill="black"/>
<path d="M64.0955 7.48161C64.0955 8.18065 64.3029 8.77609 64.7185 9.24208C65.1334 9.70808 65.679 9.94107 66.3018 9.94107C66.9508 9.94107 67.47 9.70808 67.8849 9.24208C68.3003 8.77609 68.508 8.18065 68.508 7.48161C68.508 6.80851 68.3003 6.23896 67.8849 5.7988C67.47 5.3587 66.9508 5.1257 66.3018 5.1257C65.6526 5.1257 65.1334 5.3587 64.7185 5.7988C64.3029 6.23896 64.0955 6.80851 64.0955 7.48161ZM62.0186 7.48161C62.0186 6.29074 62.4083 5.30692 63.2129 4.50438C64.0175 3.7018 65.056 3.31348 66.3018 3.31348C67.5477 3.31348 68.5857 3.7018 69.3905 4.50438C70.1951 5.30692 70.5846 6.29074 70.5846 7.48161C70.5846 8.69842 70.1951 9.73396 69.3905 10.5366C68.5857 11.365 67.5477 11.7533 66.3018 11.7533C65.056 11.7533 64.0175 11.3391 63.2129 10.5366C62.4083 9.70808 62.0186 8.69842 62.0186 7.48161Z" fill="black"/>
<path d="M71.5444 11.6243L72.2196 3.44336H74.4L75.5939 6.9125L76.0095 8.25876H76.0352C76.191 7.71505 76.3205 7.24905 76.4508 6.9125L77.6446 3.44336H79.8251L80.4997 11.6243H78.5013L78.2418 7.94804C78.2154 7.76682 78.2154 7.55971 78.2154 7.32672C78.2154 7.09372 78.2154 6.9125 78.2154 6.78306V6.57595H78.1895C78.0079 7.1455 77.8521 7.61149 77.7226 7.94804L76.8657 10.3299H75.1526L74.2959 7.94804L73.8288 6.57595H73.8029C73.8288 7.06783 73.8288 7.53383 73.8029 7.94804L73.5434 11.6243H71.5444Z" fill="black"/>
</svg>
