<svg width="28" height="28" viewBox="0 0 28 28" fill="none" xmlns="http://www.w3.org/2000/svg">
<path d="M25.6667 13.9997C25.6667 20.443 20.4434 25.6663 14 25.6663M25.6667 13.9997C25.6667 7.55635 20.4434 2.33301 14 2.33301M25.6667 13.9997H2.33337M14 25.6663C7.55672 25.6663 2.33337 20.443 2.33337 13.9997M14 25.6663C16.9182 22.4716 18.5766 18.3256 18.6667 13.9997C18.5766 9.67371 16.9182 5.52775 14 2.33301M14 25.6663C11.0819 22.4716 9.4235 18.3256 9.33337 13.9997C9.4235 9.67371 11.0819 5.52775 14 2.33301M2.33337 13.9997C2.33337 7.55635 7.55672 2.33301 14 2.33301" stroke="#fa3946" stroke-linecap="round" stroke-linejoin="round"/>
</svg>
