<svg width="26" height="23" viewBox="0 0 26 23" fill="none" xmlns="http://www.w3.org/2000/svg">
<path d="M23.3131 2.37851C22.7173 1.78235 22.0098 1.30943 21.2311 0.986775C20.4524 0.664119 19.6177 0.498047 18.7748 0.498047C17.9319 0.498047 17.0973 0.664119 16.3186 0.986775C15.5399 1.30943 14.8324 1.78235 14.2365 2.37851L12.9998 3.61518L11.7631 2.37851C10.5595 1.17487 8.92702 0.498671 7.22481 0.498671C5.52261 0.498671 3.89012 1.17487 2.68648 2.37851C1.48284 3.58215 0.806641 5.21464 0.806641 6.91684C0.806641 8.61905 1.48284 10.2515 2.68648 11.4552L12.9998 21.7685L23.3131 11.4552C23.9093 10.8593 24.3822 10.1518 24.7049 9.37309C25.0275 8.59439 25.1936 7.75975 25.1936 6.91684C25.1936 6.07394 25.0275 5.2393 24.7049 4.4606C24.3822 3.68189 23.9093 2.97439 23.3131 2.37851Z" fill="white" stroke="white" stroke-linecap="round" stroke-linejoin="round"/>
</svg>
