<svg width="28" height="28" viewBox="0 0 28 28" fill="none" xmlns="http://www.w3.org/2000/svg">
<g clip-path="url(#clip0_154_1563)">
<path d="M9.33463 14C9.33463 11.4228 11.4233 9.33296 14.0006 9.33296C16.5778 9.33296 18.6676 11.4228 18.6676 14C18.6676 16.5772 16.5778 18.667 14.0006 18.667C11.4233 18.667 9.33463 16.5772 9.33463 14ZM6.81172 14C6.81172 17.9704 10.0301 21.1888 14.0006 21.1888C17.971 21.1888 21.1894 17.9704 21.1894 14C21.1894 10.0296 17.971 6.81117 14.0006 6.81117C10.0301 6.81117 6.81172 10.0296 6.81172 14ZM19.794 6.52613C19.7938 6.8584 19.8922 7.18325 20.0767 7.4596C20.2612 7.73595 20.5235 7.95138 20.8304 8.07866C21.1374 8.20594 21.4752 8.23934 21.8011 8.17465C22.127 8.10996 22.4264 7.95007 22.6614 7.71521C22.8965 7.48036 23.0566 7.18107 23.1216 6.85521C23.1865 6.52935 23.1534 6.19154 23.0263 5.88451C22.8993 5.57748 22.6841 5.31502 22.4079 5.1303C22.1317 4.94559 21.8069 4.84693 21.4746 4.8468H21.474C21.0286 4.84701 20.6015 5.02398 20.2865 5.33885C19.9715 5.65372 19.7944 6.08074 19.794 6.52613ZM8.34455 25.3957C6.97961 25.3335 6.23772 25.1061 5.74469 24.9141C5.09106 24.6596 4.62469 24.3565 4.13436 23.8669C3.64402 23.3772 3.3405 22.9113 3.08716 22.2576C2.89497 21.7648 2.66761 21.0227 2.60556 19.6578C2.53769 18.1821 2.52413 17.7388 2.52413 14.0001C2.52413 10.2614 2.53881 9.81938 2.60556 8.34243C2.66772 6.97749 2.89676 6.23683 3.08716 5.74258C3.34162 5.08894 3.64469 4.62258 4.13436 4.13224C4.62402 3.6419 5.08994 3.33838 5.74469 3.08504C6.23749 2.89285 6.97961 2.66549 8.34455 2.60344C9.82026 2.53557 10.2636 2.52202 14.0006 2.52202C17.7375 2.52202 18.1813 2.53669 19.6582 2.60344C21.0232 2.6656 21.7638 2.89464 22.2581 3.08504C22.9117 3.33838 23.3781 3.64258 23.8684 4.13224C24.3588 4.6219 24.6612 5.08894 24.9156 5.74258C25.1078 6.23538 25.3352 6.97749 25.3972 8.34243C25.4651 9.81938 25.4786 10.2614 25.4786 14.0001C25.4786 17.7388 25.4651 18.1808 25.3972 19.6578C25.3351 21.0227 25.1066 21.7646 24.9156 22.2576C24.6612 22.9113 24.3581 23.3776 23.8684 23.8669C23.3788 24.3561 22.9117 24.6596 22.2581 24.9141C21.7653 25.1063 21.0232 25.3336 19.6582 25.3957C18.1825 25.4635 17.7392 25.4771 14.0006 25.4771C10.2619 25.4771 9.81981 25.4635 8.34455 25.3957ZM8.22863 0.084784C6.73825 0.152656 5.71983 0.388976 4.83044 0.735056C3.90935 1.09245 3.12961 1.57192 2.35042 2.34987C1.57124 3.12782 1.093 3.9088 0.735605 4.82989C0.389525 5.71984 0.153205 6.7377 0.0853333 8.22808C0.0163413 9.72082 0.000549316 10.198 0.000549316 14C0.000549316 17.802 0.0163413 18.2792 0.0853333 19.7719C0.153205 21.2624 0.389525 22.2802 0.735605 23.1701C1.093 24.0906 1.57135 24.8725 2.35042 25.6501C3.12949 26.4277 3.90935 26.9065 4.83044 27.2649C5.72151 27.611 6.73825 27.8473 8.22863 27.9152C9.72215 27.9831 10.1986 28 14.0006 28C17.8025 28 18.2797 27.9842 19.7725 27.9152C21.263 27.8473 22.2807 27.611 23.1707 27.2649C24.0912 26.9065 24.8715 26.4281 25.6507 25.6501C26.4299 24.8722 26.9071 24.0906 27.2655 23.1701C27.6116 22.2802 27.849 21.2623 27.9158 19.7719C27.9836 18.2781 27.9994 17.802 27.9994 14C27.9994 10.198 27.9836 9.72082 27.9158 8.22808C27.8479 6.73758 27.6116 5.71928 27.2655 4.82989C26.9071 3.90936 26.4286 3.12906 25.6507 2.34987C24.8727 1.57069 24.0912 1.09245 23.1718 0.735056C22.2807 0.388976 21.2629 0.151536 19.7736 0.084784C18.2809 0.016912 17.8036 0 14.0017 0C10.1997 0 9.72215 0.015792 8.22863 0.084784Z" fill="white"/>
</g>
<defs>
<clipPath id="clip0_154_1563">
<rect width="28" height="28" fill="white"/>
</clipPath>
</defs>
</svg>
