<svg width="14" height="20" viewBox="0 0 14 20" fill="none" xmlns="http://www.w3.org/2000/svg">
<mask id="path-1-inside-1_154_1609" fill="white">
<path fill-rule="evenodd" clip-rule="evenodd" d="M7.00003 9.1428C9.36697 9.1428 11.2857 7.22402 11.2857 4.85709C11.2857 2.49015 9.36697 0.571374 7.00003 0.571374C4.6331 0.571374 2.71432 2.49015 2.71432 4.85709C2.71432 7.22402 4.6331 9.1428 7.00003 9.1428ZM0.839693 12.9659C-0.558773 14.6674 -0.0617724 17.2201 1.80956 18.3815C3.31699 19.317 5.09544 19.8572 7.00005 19.8572C8.90469 19.8572 10.6832 19.317 12.1906 18.3814C14.0619 17.2201 14.5589 14.6673 13.1604 12.9659C11.6673 11.1493 9.4612 10 7.00008 10C4.53893 10 2.33281 11.1493 0.839693 12.9659Z"/>
</mask>
<path d="M1.80956 18.3815L2.33686 17.5318H2.33686L1.80956 18.3815ZM0.839693 12.9659L0.0671578 12.331L0.0671577 12.331L0.839693 12.9659ZM12.1906 18.3814L12.7179 19.2311L12.1906 18.3814ZM13.1604 12.9659L12.3879 13.6009H12.3879L13.1604 12.9659ZM10.2857 4.85709C10.2857 6.67174 8.81468 8.1428 7.00003 8.1428V10.1428C9.91925 10.1428 12.2857 7.77631 12.2857 4.85709H10.2857ZM7.00003 1.57137C8.81468 1.57137 10.2857 3.04244 10.2857 4.85709H12.2857C12.2857 1.93787 9.91925 -0.428626 7.00003 -0.428626V1.57137ZM3.71432 4.85709C3.71432 3.04244 5.18538 1.57137 7.00003 1.57137V-0.428626C4.08081 -0.428626 1.71432 1.93787 1.71432 4.85709H3.71432ZM7.00003 8.1428C5.18538 8.1428 3.71432 6.67174 3.71432 4.85709H1.71432C1.71432 7.77631 4.08081 10.1428 7.00003 10.1428V8.1428ZM2.33686 17.5318C0.947593 16.6696 0.62118 14.8067 1.61223 13.6009L0.0671577 12.331C-1.73873 14.5281 -1.07114 17.7706 1.28225 19.2311L2.33686 17.5318ZM7.00005 18.8572C5.2871 18.8572 3.69055 18.3719 2.33686 17.5318L1.28225 19.2311C2.94343 20.2621 4.90377 20.8572 7.00005 20.8572V18.8572ZM11.6633 17.5318C10.3096 18.3719 8.71302 18.8572 7.00005 18.8572V20.8572C9.09635 20.8572 11.0567 20.2621 12.7179 19.2311L11.6633 17.5318ZM12.3879 13.6009C13.379 14.8066 13.0525 16.6696 11.6633 17.5318L12.7179 19.2311C15.0713 17.7706 15.7389 14.528 13.933 12.3309L12.3879 13.6009ZM7.00008 11C9.13927 11 11.0698 11.9972 12.3879 13.6009L13.933 12.3309C12.2648 10.3014 9.78313 9 7.00008 9V11ZM1.61223 13.6009C2.93036 11.9972 4.86087 11 7.00008 11V9C4.217 9 1.73527 10.3015 0.0671578 12.331L1.61223 13.6009Z" fill="#fa3946" mask="url(#path-1-inside-1_154_1609)"/>
</svg>
