<svg width="50" height="45" viewBox="0 0 50 45" fill="none" xmlns="http://www.w3.org/2000/svg">
<g clip-path="url(#clip0_154_1596)">
<path fill-rule="evenodd" clip-rule="evenodd" d="M24.9999 44.9999C38.807 44.9999 49.9999 33.93 49.9999 20.2746C49.9999 14.3004 47.8575 8.82103 44.2911 4.54705C44.6169 4.93747 44.9308 5.33793 45.2322 5.74792C45.4077 6.60708 45.4999 7.49615 45.4999 8.40648C45.4999 15.7804 39.4557 21.7581 31.9999 21.7581C26.7104 21.7581 21.8569 19.9119 18.0622 16.8355C15.6974 14.8184 12.6177 13.5988 9.24988 13.5988C5.77448 13.5988 2.6058 14.8976 0.213036 17.0313C0.0724229 18.0927 -0.00012207 19.1753 -0.00012207 20.2746C-0.00012207 33.93 11.1928 44.9999 24.9999 44.9999Z" fill="#fa3946"/>
<path fill-rule="evenodd" clip-rule="evenodd" d="M7.13124 37.5671C11.6696 42.1536 17.9986 44.9999 24.9998 44.9999C35.4275 44.9999 44.364 38.6858 48.114 29.7125C44.1533 26.9333 39.2408 25.4266 34.0166 25.7508C28.6803 26.0819 23.9081 28.2682 20.3017 31.6348L20.3007 31.6347C16.8283 34.9187 12.2561 37.1008 7.13124 37.5671Z" fill="#ff7881"/>
<path fill-rule="evenodd" clip-rule="evenodd" d="M2.4233 9.64187C2.23889 10.0242 2.06412 10.4119 1.89929 10.8047C4.01438 9.44422 6.53887 8.65385 9.24997 8.65385C12.6178 8.65385 15.6976 9.8735 18.0624 11.8905C21.8511 14.9622 26.6954 16.8074 31.9753 16.8131L32 16.8132C36.6944 16.8132 40.5 13.0494 40.5 8.40659C40.5 3.76376 36.6944 0 32 0C27.3056 0 23.5 3.76376 23.5 8.40659C23.5 10.0488 24.2272 11.5041 25.4075 12.4034C25.3051 12.0781 25.25 11.7322 25.25 11.3736C25.25 9.46187 26.817 7.91209 28.75 7.91209C30.683 7.91209 32.25 9.46187 32.25 11.3736C32.25 13.2854 30.683 14.8352 28.75 14.8352C28.4461 14.8352 28.1513 14.7968 27.8701 14.7249L27.8768 14.7366C24.5912 13.9615 21.5916 12.4575 19.0624 10.407C16.6976 8.38998 13.6178 7.17033 10.25 7.17033C7.33242 7.17033 4.63097 8.08566 2.4233 9.64187Z" fill="#ff7881"/>
</g>
<defs>
<clipPath id="clip0_154_1596">
<rect width="50" height="45" fill="white"/>
</clipPath>
</defs>
</svg>
