<svg width="28" height="28" viewBox="0 0 28 28" fill="none" xmlns="http://www.w3.org/2000/svg">
<path d="M12.0357 11.9186V11.069C11.7192 11.0273 11.4004 11.0057 11.0812 11.0044C7.17698 11.0044 4 13.9661 4 17.6064C4 19.8391 5.19732 21.8162 7.02315 23.0111C5.80057 21.7922 5.12041 20.1855 5.12156 18.5166C5.12156 14.9283 8.20784 12.0021 12.0357 11.9186Z" fill="#00F2EA"/>
<path d="M12.2234 21.296C13.8742 21.296 15.2202 19.9964 15.2816 18.376L15.2873 3.91537H17.9563C17.8992 3.61356 17.8702 3.30713 17.8696 3L14.2249 3L14.2186 17.4612C14.1577 19.0804 12.8106 20.38 11.1604 20.38C10.6653 20.3801 10.1776 20.2604 9.73923 20.0313C10.0233 20.4228 10.3966 20.7416 10.8285 20.9615C11.2603 21.1813 11.7384 21.296 12.2234 21.296ZM22.9408 8.82383V8.01996C21.9609 8.02104 21.0018 7.73881 20.1799 7.2075C20.9013 8.02881 21.8694 8.59578 22.9408 8.82383Z" fill="#00F2EA"/>
<path d="M20.0714 7.41281C19.2699 6.51089 18.8273 5.34808 18.827 4.14355H17.853C17.9805 4.81001 18.2429 5.44361 18.6243 6.00569C19.0057 6.56777 19.4981 7.04655 20.0714 7.41281ZM11.0743 14.4722C9.38679 14.4745 8.01957 15.8221 8.01785 17.4853C8.01961 18.0367 8.1733 18.577 8.46217 19.0473C8.75103 19.5176 9.16398 19.8999 9.65599 20.1525C9.28055 19.643 9.07789 19.0276 9.07742 18.3955C9.07914 16.7318 10.4464 15.3836 12.1339 15.3819C12.4495 15.3819 12.7509 15.4333 13.0362 15.5214V11.8622C12.7372 11.8203 12.4358 11.7985 12.1339 11.797C12.0811 11.797 12.0288 11.8004 11.9766 11.801V14.6117C11.6846 14.5201 11.3804 14.4731 11.0743 14.4722Z" fill="#FF004F"/>
<path d="M22.4552 9.28906V12.0815C20.642 12.0842 18.8734 11.5222 17.3967 10.4743V17.7738C17.3967 21.4199 14.3948 24.3861 10.7052 24.3861C9.27889 24.3861 7.95645 23.9413 6.8699 23.1871C7.49716 23.8542 8.25531 24.3857 9.09732 24.7488C9.93933 25.112 10.8473 25.2989 11.7648 25.298C15.4549 25.298 18.4568 22.3318 18.4568 18.6863V11.3862C19.9336 12.434 21.7022 12.9957 23.5153 12.9929V9.40055C23.159 9.40045 22.8037 9.36308 22.4552 9.28906Z" fill="#FF004F"/>
<path d="M17.7634 17.5339V10.2224C19.2831 11.2747 21.0905 11.8367 22.9413 11.8324V9.03658C21.853 8.81221 20.8652 8.24729 20.1219 7.42425C18.9326 6.67697 18.1118 5.49174 17.8513 4.14355H15.1266L15.1208 18.5602C15.0577 20.1748 13.683 21.4704 11.9984 21.4704C10.9916 21.4693 10.048 21.0004 9.4614 20.2103C8.43168 19.6883 7.78596 18.6574 7.78538 17.5333C7.78711 15.8638 9.18589 14.5116 10.9136 14.5094C11.235 14.5094 11.5438 14.5608 11.8365 14.6494V11.829C8.13379 11.9131 5.14795 14.8478 5.14795 18.4464C5.14795 20.1874 5.84763 21.7717 6.98755 22.9547C8.14509 23.7393 9.51345 24.1576 10.9136 24.1548C14.6904 24.1548 17.7634 21.1845 17.7634 17.5339Z" fill="white"/>
</svg>
