<svg width="28" height="28" viewBox="0 0 28 28" fill="none" xmlns="http://www.w3.org/2000/svg">
<path d="M26.2967 7.48935C26.1581 6.93566 25.8758 6.42835 25.4784 6.01866C25.081 5.60896 24.5826 5.3114 24.0333 5.15602C22.0267 4.66602 14 4.66602 14 4.66602C14 4.66602 5.97335 4.66602 3.96668 5.20268C3.41747 5.35806 2.91899 5.65563 2.52159 6.06532C2.12418 6.47502 1.84194 6.98233 1.70335 7.53602C1.3361 9.5725 1.15646 11.6384 1.16668 13.7077C1.15359 15.7926 1.33324 17.8742 1.70335 19.926C1.85614 20.4625 2.14471 20.9505 2.54118 21.3429C2.93766 21.7353 3.42864 22.0188 3.96668 22.166C5.97335 22.7027 14 22.7027 14 22.7027C14 22.7027 22.0267 22.7027 24.0333 22.166C24.5826 22.0106 25.081 21.7131 25.4784 21.3034C25.8758 20.8937 26.1581 20.3864 26.2967 19.8327C26.6611 17.8115 26.8407 15.7614 26.8333 13.7077C26.8464 11.6228 26.6668 9.54116 26.2967 7.48935Z" stroke="#fa3946" stroke-linecap="round" stroke-linejoin="round"/>
<path d="M11.375 17.5227L18.0833 13.7077L11.375 9.89268V17.5227Z" stroke="#fa3946" stroke-linecap="round" stroke-linejoin="round"/>
</svg>
